<?xml version="1.0" standalone="no"?>
<!DOCTYPE svg PUBLIC "-//W3C//DTD SVG 20010904//EN"
 "http://www.w3.org/TR/2001/REC-SVG-20010904/DTD/svg10.dtd">
<svg version="1.0" xmlns="http://www.w3.org/2000/svg"
 width="233.000000pt" height="233.000000pt" viewBox="0 0 233.000000 233.000000"
 preserveAspectRatio="xMidYMid meet">
<metadata>
Created by potrace 1.10, written by Peter Selinger 2001-2011
</metadata>
<g transform="translate(0.000000,233.000000) scale(0.100000,-0.100000)"
fill="#000000" stroke="none">
<path d="M1115 1893 c-177 -21 -311 -84 -419 -197 -46 -49 -92 -114 -106 -150
-9 -26 -10 -26 -124 -26 -119 0 -142 -8 -134 -47 3 -16 17 -18 116 -21 61 -1
112 -6 112 -10 -1 -27 -22 -32 -150 -34 l-135 -3 0 -30 0 -30 133 -3 132 -3 0
-35 0 -36 -47 6 c-57 7 -83 -5 -64 -28 9 -11 25 -13 60 -9 l48 5 6 -55 c3 -31
15 -77 26 -102 l21 -47 -111 3 c-98 4 -113 2 -123 -13 -8 -13 -7 -21 4 -32 21
-19 250 -10 250 10 0 8 -5 14 -11 14 -8 0 -8 4 -1 13 6 6 11 15 11 20 1 4 2
10 2 15 1 4 0 16 -1 27 -2 20 -1 20 13 1 13 -17 28 -19 162 -20 108 0 150 3
153 12 2 7 9 9 15 5 7 -3 9 -3 5 2 -4 4 -3 14 3 21 16 20 1 72 -27 90 -19 13
-48 15 -156 12 -134 -3 -185 -17 -174 -45 3 -6 0 -14 -7 -16 -9 -3 -8 -9 3
-23 14 -18 14 -18 -3 -5 -10 8 -16 19 -14 25 3 6 0 19 -5 30 -8 14 -7 17 4 11
10 -6 11 -5 1 6 -7 7 -13 21 -13 32 0 10 -4 15 -10 12 -5 -3 -3 10 5 28 8 19
11 37 8 41 -4 3 -2 6 4 6 5 0 23 -12 38 -26 l27 -25 192 1 c241 2 236 2 236
-12 0 -6 -3 -8 -7 -5 -4 4 -19 -5 -35 -20 -22 -21 -28 -36 -28 -69 0 -45 33
-99 56 -90 9 3 11 0 7 -11 -5 -12 -2 -13 13 -5 10 5 39 9 64 8 25 -1 81 -3
125 -5 60 -2 72 -5 49 -10 -17 -4 -156 -7 -308 -7 -237 2 -280 -1 -295 -14
-20 -17 -34 -60 -19 -60 5 0 7 -4 4 -9 -4 -5 -3 -11 1 -13 5 -2 19 -17 33 -33
l25 -30 -26 23 c-20 18 -28 20 -32 10 -4 -9 -6 -8 -6 3 -1 20 -39 29 -70 17
-14 -5 -20 -4 -16 2 3 6 13 10 20 10 8 0 19 9 25 19 13 25 13 41 0 21 -8 -13
-10 -12 -10 4 0 11 -3 16 -7 12 -4 -4 -8 -15 -8 -24 0 -15 -11 -17 -96 -14
-76 3 -98 1 -108 -11 -10 -12 -10 -21 -1 -38 12 -21 16 -22 125 -16 l113 6 65
-63 c73 -70 192 -136 292 -161 33 -8 103 -15 160 -15 85 0 113 5 184 30 47 16
116 50 154 76 65 45 157 142 178 188 9 19 19 21 86 21 60 0 78 4 86 17 19 30
-8 48 -73 48 l-59 0 17 40 17 39 105 3 c99 3 105 4 108 25 5 34 -29 45 -119
41 l-79 -3 -4 100 c-2 55 -8 112 -15 128 l-11 27 51 0 50 0 -3 33 c-3 32 -4
32 -55 32 l-52 0 -25 50 c-108 216 -366 356 -601 328z m190 -95 c57 -14 143
-60 201 -106 141 -111 212 -307 179 -494 -47 -270 -284 -462 -550 -445 -167
10 -372 131 -424 250 -2 5 153 6 343 2 l347 -8 -3 53 -3 52 -175 -1 -175 -2
-1 61 -1 60 149 0 148 0 0 48 0 47 -358 -4 -359 -3 2 22 1 22 207 -1 206 -2 3
43 3 43 175 1 175 2 3 48 3 49 -330 0 c-251 0 -333 -3 -342 -12 -10 -11 8 -13
94 -13 l107 0 0 -29 0 -30 -142 -3 c-79 -2 -145 -2 -147 -1 -2 1 16 33 39 71
l43 69 165 6 c91 4 225 7 297 7 120 0 134 2 146 19 14 19 16 19 65 -13 124
-81 189 -263 149 -416 -21 -84 -51 -134 -113 -192 -64 -60 -134 -95 -220 -110
-61 -10 -81 -9 -181 11 -61 12 -132 28 -156 36 -25 7 -45 9 -45 4 0 -15 130
-94 195 -119 43 -16 81 -22 135 -22 233 1 426 164 476 402 23 114 3 228 -61
336 -87 147 -273 243 -441 228 -61 -6 -180 -39 -189 -54 -6 -9 318 -19 325 -9
17 22 130 -25 130 -54 0 -4 -7 -2 -15 6 -14 14 -37 14 -75 0 -8 -3 -24 -8 -35
-10 -16 -2 -17 -1 -5 6 8 6 11 14 6 18 -4 4 -113 8 -242 8 -129 0 -234 3 -234
6 0 9 162 96 205 110 83 26 214 30 300 7z m-488 -56 c-10 -10 -14 -22 -10 -27
5 -4 3 -5 -4 -1 -18 10 -24 -9 -13 -38 6 -17 18 -26 32 -27 22 -2 22 -2 -1 -6
-18 -4 -21 -7 -11 -13 8 -5 -13 -7 -48 -6 -33 1 -59 -1 -57 -4 2 -3 -9 -20
-25 -38 -24 -29 -28 -31 -34 -15 -4 9 -4 14 0 11 3 -4 14 0 23 9 16 17 17 20
20 48 0 8 4 14 9 13 4 -1 33 23 66 55 55 54 89 79 53 39z m-172 -220 c-23 -16
-32 -47 -23 -74 6 -16 14 -25 19 -22 5 3 9 -7 9 -22 0 -15 -3 -24 -7 -21 -9 9
-54 -33 -47 -44 9 -16 -10 -9 -36 11 l-25 20 24 20 c20 17 23 27 18 62 -4 27
-2 37 4 27 7 -12 9 -12 9 1 0 8 11 24 25 34 13 10 22 24 18 30 -3 6 0 5 8 -2
9 -8 10 -15 4 -20z m495 -32 c13 -9 13 -10 0 -10 -68 -4 -96 -12 -117 -34 -13
-14 -23 -30 -23 -36 0 -5 -3 -11 -7 -11 -58 -10 -96 -2 -68 14 9 5 23 24 31
43 14 33 15 33 86 37 40 1 75 4 78 5 3 1 12 -3 20 -8z m196 -3 c4 -4 -24 -7
-62 -6 -46 0 -62 3 -49 9 23 9 101 7 111 -3z m-456 -84 c0 -9 -149 -7 -158 2
-3 3 31 5 76 5 45 0 82 -3 82 -7z m400 -132 c0 -6 -28 -10 -62 -10 -40 1 -57
4 -47 10 19 12 109 12 109 0z m479 -85 c8 -10 5 -19 -14 -40 -13 -14 -26 -26
-27 -26 -2 0 -2 18 0 40 4 41 20 51 41 26z m-829 -38 l0 -38 -139 0 c-77 0
-142 3 -144 8 -3 4 -8 21 -11 37 l-6 30 150 0 150 0 0 -37z m781 -129 c-9 -4
-19 -5 -23 -2 -5 2 -8 -1 -8 -7 0 -6 -4 -9 -9 -6 -5 4 -4 16 2 30 7 13 15 22
19 20 5 -3 8 1 8 8 0 7 6 2 13 -12 11 -21 11 -26 -2 -31z m-233 -43 c-15 -13
-24 -27 -20 -32 4 -4 2 -4 -4 -1 -6 3 -23 -6 -39 -20 -15 -15 -26 -22 -24 -16
2 6 27 29 54 52 54 44 77 55 33 17z"/>
<path d="M457 1594 c-4 -4 -7 -16 -7 -26 0 -14 6 -19 23 -16 14 2 22 10 22 23
0 20 -25 32 -38 19z"/>
<path d="M1920 1475 c-17 -20 -6 -45 20 -45 17 0 21 5 18 27 -4 31 -20 40 -38
18z"/>
<path d="M223 1444 c-6 -16 15 -37 29 -28 4 3 8 14 8 25 0 23 -28 26 -37 3z"/>
<path d="M2024 1416 c-8 -21 3 -36 27 -36 15 0 20 6 17 22 -4 27 -35 37 -44
14z"/>
<path d="M2105 1410 c-8 -14 3 -30 21 -30 8 0 14 9 14 20 0 21 -24 28 -35 10z"/>
<path d="M1844 1386 c-8 -21 3 -36 27 -36 15 0 20 6 17 22 -4 27 -35 37 -44
14z"/>
<path d="M1824 1296 c-10 -26 4 -48 28 -44 17 2 23 10 23 28 0 18 -6 26 -23
28 -13 2 -25 -3 -28 -12z"/>
<path d="M1910 1285 c0 -18 5 -25 19 -25 20 0 31 17 24 38 -3 6 -13 12 -24 12
-14 0 -19 -7 -19 -25z"/>
<path d="M275 1271 c-3 -6 4 -15 15 -21 17 -9 20 -8 20 10 0 20 -24 28 -35 11z"/>
<path d="M345 1270 c-9 -15 4 -30 26 -30 12 0 19 7 19 20 0 21 -33 29 -45 10z"/>
<path d="M2037 1144 c-10 -10 12 -44 27 -44 16 0 25 19 19 38 -5 13 -35 17
-46 6z"/>
<path d="M197 1133 c-16 -15 -6 -33 18 -33 18 0 25 5 25 20 0 20 -28 28 -43
13z"/>
<path d="M413 1134 c-23 -10 -14 -44 14 -55 38 -14 75 3 71 34 -2 17 -10 22
-38 24 -19 1 -41 0 -47 -3z"/>
<path d="M300 1105 c0 -14 2 -25 4 -25 2 0 11 -3 19 -6 19 -7 48 22 41 41 -4
9 -19 15 -35 15 -24 0 -29 -4 -29 -25z"/>
<path d="M1910 1005 c0 -31 26 -43 47 -22 21 21 9 47 -22 47 -20 0 -25 -5 -25
-25z"/>
<path d="M587 876 c-7 -19 18 -40 39 -32 8 3 14 14 12 23 -4 22 -43 29 -51 9z"/>
<path d="M480 512 c0 -5 3 -12 7 -16 5 -4 20 -40 34 -79 22 -60 30 -72 49 -72
18 0 26 11 45 70 12 39 26 78 30 88 7 16 4 18 -16 15 -20 -2 -26 -13 -39 -60
-8 -32 -17 -58 -21 -58 -4 0 -13 26 -21 58 -12 50 -17 57 -41 60 -15 2 -27 -1
-27 -6z"/>
<path d="M809 516 c-2 -2 -3 -43 -1 -90 3 -79 5 -86 24 -86 19 0 20 5 16 50
-6 56 4 64 26 23 20 -39 56 -75 69 -70 8 2 11 30 8 83 -2 64 0 77 10 67 7 -7
21 -13 32 -13 16 0 18 -7 16 -67 -2 -61 -1 -68 17 -68 17 0 19 8 19 65 l1 65
28 -3 c24 -3 27 -1 24 19 -3 22 -7 23 -97 23 l-93 1 5 -47 c2 -27 1 -48 -2
-47 -3 0 -23 22 -44 50 -35 45 -47 55 -58 45z"/>
<path d="M1153 504 c-8 -20 7 -35 27 -29 17 5 19 -1 22 -62 2 -55 6 -68 21
-71 15 -3 17 5 17 67 0 70 1 71 26 71 18 0 25 5 22 16 -4 22 -127 29 -135 8z"/>
<path d="M1310 517 c0 -1 -2 -41 -3 -89 -3 -79 -2 -88 15 -88 13 0 18 8 18 30
0 17 4 30 10 30 5 0 16 -13 25 -30 15 -29 34 -38 48 -23 4 3 0 14 -8 23 -14
15 -13 20 5 43 42 54 18 97 -58 103 -29 2 -52 2 -52 1z m88 -64 c3 -20 -1 -23
-27 -23 -27 0 -31 4 -31 26 0 22 4 25 28 22 19 -2 28 -9 30 -25z"/>
<path d="M1501 498 c-5 -13 -20 -52 -35 -87 -14 -36 -26 -66 -26 -68 0 -2 9
-3 20 -3 11 0 20 7 20 15 0 11 11 15 35 15 22 0 38 -6 41 -15 7 -16 44 -21 44
-6 0 5 -13 39 -30 76 -16 37 -30 73 -30 81 0 23 -30 16 -39 -8z m29 -57 c0 -5
3 -16 6 -25 4 -12 0 -16 -16 -16 -16 0 -20 4 -16 16 3 9 6 20 6 25 0 5 5 9 10
9 6 0 10 -4 10 -9z"/>
<path d="M1659 508 c-60 -23 -75 -67 -40 -125 24 -39 71 -52 106 -29 15 10 22
22 19 31 -7 17 -20 20 -29 5 -10 -16 -40 -12 -58 8 -39 43 -1 96 51 73 20 -9
27 -9 33 1 18 28 -37 52 -82 36z"/>
<path d="M1770 514 c-1 -2 -1 -41 -1 -86 -1 -78 0 -83 21 -86 21 -3 22 -1 16
32 -9 46 6 46 34 1 15 -24 29 -35 46 -35 32 0 30 8 -12 54 l-35 39 35 36 c43
44 44 51 11 51 -19 0 -31 -10 -46 -35 -23 -38 -43 -38 -33 -1 4 18 1 25 -15
29 -12 3 -21 3 -21 1z"/>
<path d="M360 425 l0 -85 60 0 c53 0 60 2 60 20 0 17 -7 20 -45 20 -33 0 -45
4 -45 15 0 11 11 15 40 15 54 0 56 27 3 32 -55 4 -52 32 4 36 32 2 41 7 36 18
-3 10 -21 14 -59 14 l-54 0 0 -85z"/>
<path d="M660 425 l0 -86 63 3 c47 2 62 7 62 18 0 11 -11 15 -40 16 -29 0 -41
5 -43 17 -2 12 6 16 34 19 53 4 57 28 5 28 -35 0 -41 3 -41 21 0 19 4 20 40
14 36 -6 40 -5 40 14 0 19 -6 21 -60 21 l-60 0 0 -85z"/>
</g>
</svg>
