<?xml version="1.0" standalone="no"?>
<!DOCTYPE svg PUBLIC "-//W3C//DTD SVG 20010904//EN"
 "http://www.w3.org/TR/2001/REC-SVG-20010904/DTD/svg10.dtd">
<svg version="1.0" xmlns="http://www.w3.org/2000/svg"
 width="233.000000pt" height="134.000000pt" viewBox="0 0 233.000000 134.000000"
 preserveAspectRatio="xMidYMid meet">
<metadata>
Created by potrace 1.10, written by Peter Selinger 2001-2011
</metadata>
<g transform="translate(0.000000,134.000000) scale(0.100000,-0.100000)"
fill="#000000" stroke="none">
<path d="M1110 1294 c-169 -26 -292 -80 -385 -171 -63 -60 -118 -133 -135
-177 -9 -26 -10 -26 -124 -26 -119 0 -142 -8 -134 -47 3 -16 17 -18 115 -21
104 -2 111 -4 106 -22 -5 -18 -16 -20 -142 -22 -134 -3 -136 -3 -139 -27 -2
-13 1 -28 6 -33 6 -6 64 -10 136 -9 l126 2 0 -37 0 -36 -47 6 c-57 7 -83 -5
-64 -28 9 -11 25 -13 60 -9 l48 5 6 -55 c3 -31 15 -77 26 -102 l21 -47 -111 3
c-96 3 -113 2 -122 -13 -8 -12 -7 -20 1 -31 9 -11 37 -13 143 -9 109 4 131 2
127 -9 -4 -11 -25 -13 -99 -11 -76 3 -98 1 -108 -11 -10 -12 -10 -21 -1 -38
12 -21 16 -22 126 -16 l113 5 66 -64 c74 -71 187 -133 290 -159 122 -31 289
-16 402 37 103 47 226 153 268 232 17 31 18 31 92 31 60 0 78 4 86 17 19 30
-8 48 -73 48 l-59 0 17 40 17 39 105 3 c87 3 105 6 108 19 2 9 -5 24 -14 34
-14 13 -33 16 -101 14 l-83 -3 -4 94 c-2 52 -7 110 -11 128 l-7 32 46 0 c41 0
46 2 46 23 0 40 -14 50 -63 45 l-46 -5 -25 51 c-36 73 -123 175 -189 219 -122
84 -293 129 -417 111z m189 -94 c24 -6 67 -22 95 -37 138 -69 229 -171 272
-306 82 -259 -27 -526 -264 -645 -147 -74 -278 -81 -427 -23 -110 42 -232 142
-264 215 -2 4 152 5 343 1 l346 -8 0 52 0 51 -178 0 -177 0 -1 60 -1 60 149 0
148 0 0 48 0 47 -358 -4 -359 -3 2 22 1 22 207 -1 206 -2 3 43 3 43 178 0 177
0 0 50 0 50 -330 0 c-250 0 -332 -3 -341 -12 -10 -11 8 -13 94 -13 l107 0 0
-29 0 -30 -137 -3 c-76 -2 -141 -1 -145 2 -4 3 11 35 34 71 l41 66 165 6 c91
4 225 7 298 7 123 0 134 2 144 20 10 19 12 19 61 -12 119 -73 189 -247 159
-393 -17 -83 -41 -133 -91 -189 -62 -71 -136 -114 -225 -133 -83 -19 -143 -13
-316 31 -49 12 -88 19 -88 14 0 -15 122 -90 188 -115 170 -64 393 0 511 149
134 168 153 378 50 557 -86 149 -276 251 -441 235 -60 -5 -198 -44 -198 -55 0
-10 324 -16 331 -6 3 5 26 3 50 -4 32 -9 39 -14 24 -17 -20 -5 -20 -5 0 -13
19 -7 19 -8 -3 -8 -12 -1 -30 -6 -40 -12 -12 -8 -27 -8 -52 0 l-35 11 33 -3
c17 -2 32 0 32 4 0 12 -175 21 -333 17 -81 -1 -147 0 -147 4 0 9 139 85 191
104 82 29 217 35 308 14z m-512 -110 c5 -33 14 -40 51 -43 18 -1 32 -6 32 -11
0 -4 -12 -6 -27 -3 -16 3 -50 -1 -78 -8 -52 -14 -119 -45 -97 -45 9 0 8 -7 -5
-24 -10 -13 -22 -22 -27 -19 -5 3 -1 10 8 15 9 5 16 14 16 19 0 6 -6 7 -12 3
-9 -5 -9 -2 1 9 7 9 20 17 28 17 8 0 12 4 9 9 -8 13 4 42 15 35 5 -3 9 -1 9 4
0 14 54 72 64 69 5 -2 11 -14 13 -27z m-159 -185 c0 -13 -4 -22 -9 -19 -5 3
-7 -3 -6 -13 7 -32 19 -53 28 -47 5 3 9 0 9 -6 0 -8 36 -11 125 -8 77 2 127
-1 129 -7 3 -5 11 -2 19 7 11 14 16 15 26 5 10 -9 11 -8 5 6 -3 9 -1 23 5 31
6 7 8 15 5 19 -3 3 4 11 16 17 17 9 32 9 67 -1 27 -7 48 -8 51 -3 8 10 242 14
242 3 0 -3 -66 -9 -147 -12 -139 -5 -148 -6 -166 -29 -45 -57 -47 -58 -74 -52
-16 4 -24 3 -20 -3 4 -6 -3 -8 -18 -5 -14 2 -25 9 -25 14 0 5 -4 7 -8 4 -5 -3
-61 -6 -125 -7 -64 -1 -114 -6 -111 -10 3 -5 -3 -6 -12 -2 -10 3 -15 2 -12 -3
2 -5 -5 -19 -17 -31 l-22 -23 -23 22 -23 21 22 18 c20 17 30 72 14 82 -5 2 -2
2 6 0 8 -2 11 2 7 12 -3 9 0 15 10 15 9 0 12 5 8 12 -4 7 -3 8 4 4 7 -4 12 -2
12 3 0 6 2 11 4 11 2 0 4 -11 4 -25z m-28 -195 c8 -5 11 -10 5 -10 -5 0 1 -7
15 -15 20 -12 64 -15 220 -14 245 1 260 1 260 -10 0 -4 -12 -7 -27 -5 -23 2
-32 -4 -50 -31 -30 -45 -30 -96 0 -131 24 -27 24 -27 170 -28 80 -1 149 -5
153 -9 10 -9 -6 -10 -340 -12 -209 -1 -291 -5 -294 -14 -2 -6 -8 -8 -14 -5 -7
4 -9 -6 -6 -29 2 -20 -1 -39 -7 -41 -5 -2 -3 -5 7 -5 11 -1 15 -7 11 -21 -5
-19 -6 -19 -18 -4 -7 11 -19 15 -29 11 -10 -4 -15 -3 -11 3 8 12 3 12 -29 0
-14 -5 -26 -7 -26 -4 0 3 13 10 30 15 16 6 27 15 24 20 -3 5 0 9 5 9 20 0 11
16 -9 17 -36 3 -47 23 -36 65 10 38 23 48 31 26 7 -18 297 -17 303 0 2 7 7 10
11 8 4 -3 9 3 10 12 13 100 2 107 -165 108 -90 1 -142 -3 -158 -12 -14 -6 -28
-9 -32 -6 -4 4 -4 -6 0 -22 6 -26 6 -27 -9 -13 -8 9 -18 30 -21 46 -4 17 -10
31 -14 31 -5 0 -3 14 3 30 6 17 16 30 22 30 5 0 3 5 -5 10 -8 5 -10 10 -5 10
6 0 17 -5 25 -10z m664 -36 c9 -3 16 -10 16 -15 0 -6 -8 -5 -19 1 -25 13 -61
13 -61 0 0 -5 -5 -10 -11 -10 -8 0 -8 5 1 15 13 15 47 20 74 9z m499 -110 c-3
-8 -12 -14 -20 -14 -8 0 -12 -4 -8 -9 3 -5 1 -12 -4 -15 -15 -10 -23 29 -11
58 9 25 11 25 29 10 11 -9 17 -23 14 -30z m-833 -17 l0 -38 -142 3 -142 3 -7
29 c-5 16 -7 32 -5 35 2 3 70 6 150 6 l146 0 0 -38z m770 -92 c-11 -13 -10
-14 5 -9 15 6 16 4 5 -15 -6 -13 -14 -20 -17 -17 -3 3 -14 -5 -24 -17 -18 -22
-18 -21 -5 17 7 21 19 42 27 47 20 13 23 11 9 -6z m-247 -105 c-18 -17 -40
-30 -50 -30 -13 0 -10 4 10 15 15 8 34 21 43 30 8 8 18 15 22 15 4 0 -7 -14
-25 -30z"/>
<path d="M457 994 c-4 -4 -7 -16 -7 -26 0 -14 6 -19 23 -16 14 2 22 10 22 23
0 20 -25 32 -38 19z"/>
<path d="M1920 875 c-17 -20 -6 -45 20 -45 17 0 21 5 18 27 -4 31 -20 40 -38
18z"/>
<path d="M223 844 c-6 -16 15 -37 29 -28 4 3 8 14 8 25 0 23 -28 26 -37 3z"/>
<path d="M2024 816 c-8 -21 3 -36 27 -36 15 0 20 6 17 22 -4 27 -35 37 -44 14z"/>
<path d="M2105 810 c-8 -14 3 -30 21 -30 8 0 14 9 14 20 0 21 -24 28 -35 10z"/>
<path d="M1844 786 c-8 -21 3 -36 27 -36 15 0 20 6 17 22 -4 27 -35 37 -44 14z"/>
<path d="M1824 696 c-10 -26 4 -48 28 -44 17 2 23 10 23 28 0 18 -6 26 -23 28
-13 2 -25 -3 -28 -12z"/>
<path d="M1910 690 c0 -24 29 -38 40 -20 12 19 1 40 -21 40 -12 0 -19 -7 -19
-20z"/>
<path d="M345 670 c-9 -15 4 -30 26 -30 12 0 19 7 19 20 0 21 -33 29 -45 10z"/>
<path d="M2035 540 c-8 -13 13 -40 30 -40 15 0 24 19 18 38 -6 15 -39 16 -48
2z"/>
<path d="M197 533 c-16 -15 -6 -33 18 -33 18 0 25 5 25 20 0 20 -28 28 -43 13z"/>
<path d="M413 534 c-23 -10 -14 -44 14 -55 38 -14 75 3 71 34 -2 17 -10 22
-38 24 -19 1 -41 0 -47 -3z"/>
<path d="M300 505 c0 -14 2 -25 4 -25 2 0 11 -3 19 -6 19 -7 48 22 41 41 -4 9
-19 15 -35 15 -24 0 -29 -4 -29 -25z"/>
<path d="M1910 405 c0 -31 26 -43 47 -22 21 21 9 47 -22 47 -20 0 -25 -5 -25
-25z"/>
<path d="M587 276 c-7 -19 18 -40 39 -32 8 3 14 14 12 23 -4 22 -43 29 -51 9z"/>
</g>
</svg>
